<?xml version="1.0" standalone="no"?>
<!DOCTYPE svg PUBLIC "-//W3C//DTD SVG 20010904//EN"
 "http://www.w3.org/TR/2001/REC-SVG-20010904/DTD/svg10.dtd">
<svg version="1.0" xmlns="http://www.w3.org/2000/svg"
 width="250.000000pt" height="100.000000pt" viewBox="0 0 250.000000 100.000000"
 preserveAspectRatio="xMidYMid meet">

<g transform="translate(0.000000,100.000000) scale(0.100000,-0.100000)"
fill="#000000" stroke="none">
<path d="M642 748 c-23 -46 -87 -170 -142 -277 -55 -107 -100 -198 -100 -203
0 -5 22 -8 50 -7 55 3 56 1 29 -53 -10 -21 -19 -42 -19 -48 0 -6 77 -10 230
-10 153 0 230 4 230 10 0 6 -9 28 -20 50 -11 22 -20 43 -20 47 0 4 22 6 50 5
33 -3 50 0 50 8 0 6 -22 53 -49 103 -26 51 -90 174 -141 275 -51 100 -96 182
-99 182 -4 0 -26 -37 -49 -82z m90 -80 c21 -40 71 -138 113 -216 41 -79 75
-146 75 -148 0 -2 -13 -4 -29 -4 -39 0 -52 18 -131 179 -35 72 -67 131 -70
131 -3 0 -39 -68 -80 -150 -76 -153 -93 -172 -135 -156 -13 5 -2 31 55 138 38
73 89 170 112 216 23 45 45 82 48 82 3 0 22 -33 42 -72z m18 -240 c30 -57 56
-109 58 -115 3 -10 -26 -13 -117 -13 -67 0 -121 3 -121 6 0 11 114 224 120
224 3 0 30 -46 60 -102z m105 -198 c8 -16 15 -31 15 -35 0 -3 -81 -5 -180 -5
-99 0 -180 3 -180 6 0 3 8 19 17 35 l17 29 148 0 147 0 16 -30z"/>
<path d="M2202 777 c-47 -18 -97 -60 -115 -100 -14 -28 -17 -67 -17 -194 0
-145 2 -161 23 -198 54 -95 173 -128 277 -75 44 23 61 42 94 107 24 47 26 63
26 167 0 104 -3 121 -26 171 -52 109 -159 159 -262 122z m138 -49 c75 -38 85
-67 85 -243 0 -176 -10 -205 -85 -242 -56 -29 -84 -29 -140 -1 -75 38 -85 67
-85 243 0 132 2 154 20 185 22 38 93 80 135 80 14 0 46 -10 70 -22z"/>
<path d="M20 485 l0 -295 25 0 25 0 0 125 0 125 104 0 c56 0 118 5 137 11 139
47 156 245 25 308 -36 18 -61 21 -179 21 l-137 0 0 -295z m294 240 c68 -32 89
-136 40 -194 -34 -41 -81 -53 -189 -49 l-90 3 -3 128 -3 127 107 0 c74 0 116
-5 138 -15z"/>
<path d="M1060 485 c0 -288 0 -295 20 -295 19 0 20 7 20 135 l0 136 86 -3 86
-3 66 -130 c59 -115 70 -130 95 -133 27 -3 34 6 18 24 -5 5 -36 61 -70 125
l-61 116 47 25 c61 31 86 73 86 144 0 43 -6 60 -28 90 -42 55 -75 64 -230 64
l-135 0 0 -295z m284 245 c32 -12 66 -65 66 -103 0 -15 -6 -43 -14 -61 -21
-50 -76 -68 -196 -64 l-95 3 -3 118 -3 117 110 0 c60 0 121 -4 135 -10z"/>
<path d="M1580 485 l0 -295 25 0 c25 0 25 1 25 83 l1 82 69 83 c48 58 71 79
77 70 4 -7 47 -80 94 -163 74 -128 90 -150 113 -153 14 -2 26 -1 26 2 0 6
-111 195 -172 294 l-39 64 40 51 c22 29 63 79 90 112 27 33 45 62 40 63 -30
11 -66 -23 -194 -184 l-140 -175 -3 180 -2 181 -25 0 -25 0 0 -295z"/>
</g>
</svg>
